<svg width="1200" height="680" viewBox="0 0 1200 680" fill="none" xmlns="http://www.w3.org/2000/svg" role="img" aria-labelledby="title desc">
  <title id="title">EasyHook interface overview</title>
  <desc id="desc">A diagram showing the main EasyHook interface areas: script library, script editor, Android target panel, run controls, and console.</desc>
  <rect width="1200" height="680" rx="18" fill="#111113"/>
  <rect x="24" y="24" width="1152" height="58" rx="10" fill="#151518" stroke="#2A2A30"/>
  <rect x="48" y="39" width="34" height="28" rx="7" fill="#22B573"/>
  <text x="57" y="58" fill="#07150F" font-family="Segoe UI, Arial, sans-serif" font-size="12" font-weight="700">EH</text>
  <text x="96" y="56" fill="#F0F0EE" font-family="Segoe UI, Arial, sans-serif" font-size="22" font-weight="700">EasyHook</text>
  <text x="218" y="56" fill="#A2A29C" font-family="Segoe UI, Arial, sans-serif" font-size="14">Android Frida IDE</text>

  <rect x="24" y="100" width="250" height="556" rx="12" fill="#161619" stroke="#2A2A30"/>
  <text x="46" y="135" fill="#F0F0EE" font-family="Segoe UI, Arial, sans-serif" font-size="18" font-weight="700">Script Library</text>
  <rect x="46" y="154" width="206" height="36" rx="7" fill="#242428" stroke="#34343A"/>
  <text x="62" y="177" fill="#A2A29C" font-family="Segoe UI, Arial, sans-serif" font-size="13">Search scripts</text>
  <rect x="46" y="210" width="206" height="60" rx="8" fill="#20362B" stroke="#22B573"/>
  <text x="62" y="236" fill="#F0F0EE" font-family="Segoe UI, Arial, sans-serif" font-size="14" font-weight="700">android-webview.js</text>
  <text x="62" y="256" fill="#9EDDBA" font-family="Segoe UI, Arial, sans-serif" font-size="12">examples/android-webview...</text>
  <rect x="46" y="284" width="206" height="60" rx="8" fill="#1A1A1D" stroke="#2A2A30"/>
  <text x="62" y="310" fill="#F0F0EE" font-family="Segoe UI, Arial, sans-serif" font-size="14" font-weight="700">activity-onresume.js</text>
  <text x="62" y="330" fill="#A2A29C" font-family="Segoe UI, Arial, sans-serif" font-size="12">examples/activity...</text>
  <rect x="46" y="358" width="206" height="60" rx="8" fill="#1A1A1D" stroke="#2A2A30"/>
  <text x="62" y="384" fill="#F0F0EE" font-family="Segoe UI, Arial, sans-serif" font-size="14" font-weight="700">native-open-trace.js</text>
  <text x="62" y="404" fill="#A2A29C" font-family="Segoe UI, Arial, sans-serif" font-size="12">examples/native...</text>

  <rect x="296" y="100" width="548" height="556" rx="12" fill="#0F1010" stroke="#2A2A30"/>
  <rect x="296" y="100" width="548" height="58" rx="12" fill="#18181B" stroke="#2A2A30"/>
  <text x="320" y="135" fill="#F0F0EE" font-family="Segoe UI, Arial, sans-serif" font-size="18" font-weight="700">Script Editor</text>
  <text x="728" y="135" fill="#A2A29C" font-family="Segoe UI, Arial, sans-serif" font-size="13">42 lines</text>
  <rect x="320" y="182" width="496" height="446" rx="8" fill="#111213" stroke="#242428"/>
  <text x="344" y="224" fill="#77776F" font-family="Cascadia Code, Consolas, monospace" font-size="15">1</text>
  <text x="382" y="224" fill="#72D89F" font-family="Cascadia Code, Consolas, monospace" font-size="15">Java.perform(function () {</text>
  <text x="344" y="258" fill="#77776F" font-family="Cascadia Code, Consolas, monospace" font-size="15">2</text>
  <text x="382" y="258" fill="#E8E6D9" font-family="Cascadia Code, Consolas, monospace" font-size="15">const WebView = Java.use(...);</text>
  <text x="344" y="292" fill="#77776F" font-family="Cascadia Code, Consolas, monospace" font-size="15">3</text>
  <text x="382" y="292" fill="#E1B967" font-family="Cascadia Code, Consolas, monospace" font-size="15">send({ event: 'hooked' });</text>
  <text x="344" y="326" fill="#77776F" font-family="Cascadia Code, Consolas, monospace" font-size="15">4</text>
  <text x="382" y="326" fill="#72D89F" font-family="Cascadia Code, Consolas, monospace" font-size="15">});</text>

  <rect x="866" y="100" width="310" height="300" rx="12" fill="#1A1A1D" stroke="#2A2A30"/>
  <text x="890" y="135" fill="#F0F0EE" font-family="Segoe UI, Arial, sans-serif" font-size="18" font-weight="700">Android Target</text>
  <rect x="890" y="158" width="262" height="34" rx="7" fill="#242428" stroke="#34343A"/>
  <text x="906" y="181" fill="#D7D7D2" font-family="Segoe UI, Arial, sans-serif" font-size="13">Pixel 7 Pro (usb)</text>
  <rect x="890" y="212" width="122" height="34" rx="7" fill="#20362B" stroke="#22B573"/>
  <text x="931" y="235" fill="#9EDDBA" font-family="Segoe UI, Arial, sans-serif" font-size="13" font-weight="700">Attach</text>
  <rect x="1030" y="212" width="122" height="34" rx="7" fill="#242428" stroke="#34343A"/>
  <text x="1071" y="235" fill="#D7D7D2" font-family="Segoe UI, Arial, sans-serif" font-size="13">Spawn</text>
  <rect x="890" y="266" width="262" height="38" rx="7" fill="#242428" stroke="#34343A"/>
  <text x="906" y="290" fill="#D7D7D2" font-family="Segoe UI, Arial, sans-serif" font-size="13">com.example.app (18472)</text>
  <rect x="890" y="324" width="124" height="44" rx="8" fill="#22B573"/>
  <text x="936" y="352" fill="#07150F" font-family="Segoe UI, Arial, sans-serif" font-size="14" font-weight="800">Run</text>
  <rect x="1028" y="324" width="124" height="44" rx="8" fill="#3A2020" stroke="#A93C3C"/>
  <text x="1075" y="352" fill="#F0F0EE" font-family="Segoe UI, Arial, sans-serif" font-size="14" font-weight="700">Stop</text>

  <rect x="866" y="422" width="310" height="234" rx="12" fill="#1A1A1D" stroke="#2A2A30"/>
  <text x="890" y="457" fill="#F0F0EE" font-family="Segoe UI, Arial, sans-serif" font-size="18" font-weight="700">Console</text>
  <rect x="890" y="480" width="262" height="120" rx="8" fill="#101011" stroke="#27272C"/>
  <text x="908" y="510" fill="#72D89F" font-family="Cascadia Code, Consolas, monospace" font-size="13">[13:24:02] hooked WebView</text>
  <text x="908" y="538" fill="#D7D7D2" font-family="Cascadia Code, Consolas, monospace" font-size="13">[13:24:05] loadUrl(...)</text>
  <text x="908" y="566" fill="#E1B967" font-family="Cascadia Code, Consolas, monospace" font-size="13">[13:24:10] detached</text>
  <rect x="890" y="614" width="190" height="34" rx="7" fill="#242428" stroke="#34343A"/>
  <text x="906" y="637" fill="#A2A29C" font-family="Segoe UI, Arial, sans-serif" font-size="13">{ "type": "ping" }</text>
  <rect x="1090" y="614" width="62" height="34" rx="7" fill="#242428" stroke="#34343A"/>
  <text x="1107" y="637" fill="#F0F0EE" font-family="Segoe UI, Arial, sans-serif" font-size="13">Post</text>
</svg>
